<?xml version="1.0" encoding="iso-8859-1"?>
<!-- Uploaded to: SVG Repo, www.svgrepo.com, Generator: SVG Repo Mixer Tools -->
<svg fill="#ffff" height="42px" width="45px" version="1.1" id="Layer_1" xmlns="http://www.w3.org/2000/svg" xmlns:xlink="http://www.w3.org/1999/xlink" 
	 viewBox="0 0 512 512" xml:space="preserve">
<g>
	<g>
		<path d="M256,206.019c-27.559,0-49.981,22.421-49.981,49.981s22.421,49.981,49.981,49.981s49.981-22.421,49.981-49.981
			S283.559,206.019,256,206.019z M256,290.307c-18.917,0-34.307-15.39-34.307-34.307c0-18.917,15.39-34.307,34.307-34.307
			c18.917,0,34.307,15.39,34.307,34.307C290.307,274.917,274.917,290.307,256,290.307z"/>
	</g>
</g>
<g>
	<g>
		<path d="M504.083,244.715l-120.073-43.5c-4.067-1.473-8.563,0.629-10.037,4.699s0.63,8.563,4.699,10.037l88.916,32.213H327.84
			c-3.641-33.602-30.401-60.362-64.003-64.003V44.393l52.936,146.137c0.792,2.186,2.513,3.908,4.699,4.699l24.416,8.846
			c4.072,1.472,8.563-0.631,10.037-4.699c1.473-4.07-0.63-8.563-4.699-10.037l-20.967-7.595L267.296,7.918
			C265.553,3.109,261.12,0,256.004,0h-0.002c0,0-0.001,0-0.002,0c-0.005,0-0.009,0.001-0.014,0.001
			c-5.107,0.007-9.531,3.113-11.271,7.917l-62.973,173.823L7.919,244.705C3.109,246.448,0,250.88,0,255.996
			c0,5.116,3.109,9.547,7.918,11.29l173.823,62.973l21.106,58.266c1.155,3.188,4.163,5.17,7.369,5.17
			c0.886,0,1.787-0.151,2.669-0.47c4.07-1.474,6.173-5.967,4.7-10.037l-22.356-61.715c-0.792-2.186-2.513-3.907-4.699-4.7
			L44.415,263.837H184.16c3.64,33.602,30.401,60.362,64.003,64.003v139.768l-18.719-51.676c-1.474-4.07-5.967-6.171-10.037-4.7
			c-4.07,1.474-6.173,5.967-4.7,10.037l29.997,82.813c1.742,4.81,6.173,7.917,11.288,7.918c0,0,0.001,0,0.002,0
			c5.115,0,9.545-3.107,11.29-7.917l62.973-173.823l173.823-62.964c4.811-1.742,7.918-6.173,7.919-11.289c0-0.001,0-0.002,0-0.003
			v-0.002c0.001-0.007,0-0.014,0-0.02C511.989,250.876,508.885,246.455,504.083,244.715z M199.401,256
			c0-9.205,2.257-18.337,6.525-26.412c2.023-3.826,0.561-8.568-3.265-10.591c-3.825-2.022-8.568-0.561-10.591,3.265
			c-4.24,8.021-6.919,16.852-7.908,25.901H44.393l146.137-52.936c2.186-0.792,3.907-2.513,4.699-4.699l52.935-146.114v139.74
			c-10.773,1.168-21.148,4.732-30.373,10.489c-3.672,2.29-4.791,7.125-2.5,10.797c2.291,3.672,7.124,4.79,10.797,2.5
			c8.954-5.587,19.298-8.54,29.912-8.54c31.209,0,56.599,25.39,56.599,56.599c0,31.209-25.389,56.599-56.598,56.599
			C224.791,312.599,199.401,287.209,199.401,256z M321.47,316.772c-2.186,0.792-3.907,2.513-4.699,4.699l-52.935,146.116V327.84
			c33.602-3.64,60.363-30.401,64.003-64.003h139.768L321.47,316.772z"/>
	</g>
</g>
</svg>