<?xml version="1.0" encoding="utf-8"?>

<!DOCTYPE svg PUBLIC "-//W3C//DTD SVG 1.1//EN" "http://www.w3.org/Graphics/SVG/1.1/DTD/svg11.dtd">
<!-- Uploaded to: SVG Repo, www.svgrepo.com, Generator: SVG Repo Mixer Tools -->
<svg height="50px" width="80px" version="1.1" id="_x32_" xmlns="http://www.w3.org/2000/svg" xmlns:xlink="http://www.w3.org/1999/xlink" 
	 viewBox="0 0 512 512"  xml:space="preserve">
<style type="text/css">
	.st0{fill:#ffff;}
</style>
<g>
	<path class="st0" d="M350.751,342.672c2.721,2.828,7.135,2.828,9.861,0c2.72-2.828,7.802-18.051,7.672-18.195
		c-0.137-0.137-14.812,5.137-17.533,7.964C348.025,335.264,348.025,339.845,350.751,342.672z"/>
	<path class="st0" d="M385.81,332.442c-2.72-2.828-17.389-8.101-17.526-7.964c-0.137,0.144,4.945,15.367,7.665,18.195
		c2.726,2.828,7.141,2.828,9.861,0C388.536,339.845,388.536,335.264,385.81,332.442z"/>
	<path class="st0" d="M350.751,372.195c2.721,2.828,7.135,2.828,9.861,0c2.72-2.828,7.802-18.051,7.672-18.194
		c-0.137-0.137-14.812,5.136-17.533,7.964C348.025,364.786,348.025,369.368,350.751,372.195z"/>
	<path class="st0" d="M368.284,354.001c-0.137,0.143,4.945,15.367,7.665,18.194c2.726,2.828,7.141,2.828,9.861,0
		c2.726-2.828,2.726-7.409,0-10.23C383.09,359.137,368.421,353.864,368.284,354.001z"/>
	<path class="st0" d="M140.811,323.219c2.72-2.828,7.803-18.051,7.671-18.194c-0.137-0.137-14.812,5.136-17.532,7.964
		c-2.726,2.821-2.726,7.403,0,10.23C133.671,326.047,138.085,326.047,140.811,323.219z"/>
	<path class="st0" d="M166.009,323.219c2.726-2.828,2.726-7.409,0-10.23c-2.72-2.828-17.389-8.101-17.527-7.964
		c-0.137,0.143,4.946,15.367,7.666,18.194C158.875,326.047,163.289,326.047,166.009,323.219z"/>
	<path class="st0" d="M130.951,359.871c2.72,2.828,7.135,2.828,9.861,0c2.72-2.828,7.803-18.052,7.671-18.194
		c-0.137-0.138-14.812,5.136-17.532,7.964C128.224,352.462,128.224,357.043,130.951,359.871z"/>
	<path class="st0" d="M166.009,359.871c2.726-2.828,2.726-7.409,0-10.231c-2.72-2.828-17.389-8.101-17.527-7.964
		c-0.137,0.143,4.946,15.366,7.666,18.194C158.875,362.698,163.289,362.698,166.009,359.871z"/>
	<path class="st0" d="M350.751,310.096c2.721,2.827,7.135,2.827,9.861,0c2.72-2.828,7.802-18.051,7.672-18.195
		c-0.137-0.137-14.812,5.136-17.533,7.964C348.025,302.686,348.025,307.268,350.751,310.096z"/>
	<path class="st0" d="M385.81,299.865c-2.72-2.828-17.389-8.101-17.526-7.964c-0.137,0.144,4.945,15.367,7.665,18.195
		c2.726,2.827,7.141,2.827,9.861,0C388.536,307.268,388.536,302.686,385.81,299.865z"/>
	<path class="st0" d="M417.373,416.75c-10.899-16.322-27.452-25.347-43.01-31.211c-7.803-2.934-15.427-5.1-22.144-6.937
		c-6.705-1.825-12.54-3.365-16.459-4.838c-6.854-2.554-14.096-5.846-19.148-9.396c-2.524-1.76-4.469-3.573-5.596-5.118
		c-1.14-1.581-1.45-2.672-1.462-3.627c0-6.592,0-14.836,0-25.681c6.944-7.726,16.238-18.899,22.394-35.089l68.996-16.321
		c2.309-0.502,4.32-1.891,5.578-3.854c1.259-1.969,1.658-4.342,1.115-6.604c0,0-4.963-35.273-23.724-76.136l20.92,5.082
		c1.092,0.257,2.177,0.382,3.245,0.382c6.216,0,11.842-4.224,13.386-10.511c0.269-1.098,0.394-2.183,0.394-3.257
		c0-6.221-4.224-11.853-10.529-13.386l-26.474-6.425c5.548-18.432,7.408-35.196,6.58-50.366l20.551-6.782
		c5.78-1.921,9.455-7.29,9.449-13.07c0-1.444-0.226-2.899-0.698-4.331c-1.903-5.774-7.284-9.449-13.064-9.449
		c-1.432,0-2.893,0.226-4.331,0.704l-16.745,5.53C370.091,30.873,317.077,3.558,300.29,0.593
		c-16.196-2.858-29.016,4.582-29.016,22.907c0,2.147,0,6.228,0,11.322c-4.82-1.384-9.944-2.159-15.272-2.159
		s-10.451,0.775-15.271,2.159c0-5.094,0-9.175,0-11.322c0-18.326-12.82-25.765-29.016-22.907
		c-16.786,2.964-69.802,30.28-86.307,85.472l-16.763-5.536c-1.42-0.477-2.887-0.704-4.313-0.704c-5.78,0-11.155,3.669-13.064,9.449
		c-0.477,1.432-0.704,2.894-0.704,4.331c0,5.78,3.675,11.149,9.455,13.07l20.551,6.782c-0.829,15.164,1.032,31.933,6.574,50.366
		l-26.475,6.425c-6.3,1.533-10.523,7.165-10.523,13.386c0,1.074,0.125,2.166,0.388,3.246c1.545,6.299,7.17,10.523,13.392,10.523
		c1.068,0,2.153-0.125,3.24-0.382l20.932-5.082c-18.767,40.863-23.73,76.136-23.73,76.136c-0.543,2.262-0.144,4.635,1.116,6.604
		c1.258,1.963,3.269,3.352,5.578,3.854l68.996,16.321c6.156,16.19,15.45,27.363,22.394,35.089c0,10.845,0,19.089,0,25.681
		c0,0.811-0.322,1.98-1.581,3.65c-1.843,2.482-5.667,5.483-10.207,8.036c-4.528,2.576-9.735,4.808-14.293,6.407
		c-5.351,1.903-13.971,3.878-23.629,6.645c-14.514,4.194-31.67,10.242-45.629,22.215c-6.967,5.977-13.088,13.5-17.389,22.842
		c-4.307,9.336-6.777,20.431-6.771,33.412c0,3.007,0.132,6.12,0.406,9.342c0.197,2.267,1.056,4.098,2.064,5.608
		c1.921,2.827,4.468,4.921,7.66,7.075c5.59,3.698,13.333,7.313,23.248,10.863C146.001,502.3,195.127,511.982,256.003,512
		c49.459-0.006,91.205-6.425,121.002-14.484c14.908-4.038,26.809-8.465,35.411-12.886c4.306-2.224,7.791-4.426,10.552-6.836
		c1.384-1.217,2.595-2.494,3.615-4.014c1.002-1.51,1.867-3.341,2.064-5.608c0.268-3.216,0.4-6.318,0.4-9.318
		C429.071,441.549,424.627,427.602,417.373,416.75z M157.729,423.593c0.137-0.096,0.215-0.149,0.215-0.149
		c1.497-1.432,3.543-2.147,5.607-1.963c2.07,0.191,3.949,1.265,5.172,2.935l2.189,3.018l3.341,1.08
		c1.939,0.626,3.525,2.058,4.349,3.913c0.829,1.861,0.829,3.985,0.006,5.852c0,0,0.03,0.012-0.196,0.472l-15.308,4.981
		c-1.086-2.01-3.048-3.484-5.375-3.902V423.593z M133.838,432.368c0.817-1.909,2.422-3.371,4.39-4.015l3.532-1.146l2.076-2.845
		c1.193-1.652,3.037-2.714,5.058-2.929c2.029-0.214,4.057,0.448,5.566,1.808c0,0,0.029-0.036,0.507,0.448v16.142
		c-2.327,0.418-4.283,1.891-5.375,3.902l-15.498-5.047c-0.084-0.244-0.131-0.37-0.131-0.37
		C133.068,436.442,133.021,434.271,133.838,432.368z M140.698,465.709c-2.052,0.268-4.128-0.358-5.684-1.718
		c-1.563-1.372-2.458-3.341-2.458-5.41v-3.716l-2.076-2.858c-0.931-1.288-1.408-2.834-1.366-4.402
		c0.012-0.436,0.054-0.877,0.15-1.307c0.131-0.614,0.34-1.204,0.614-1.748c0.006-0.018,0.012-0.024,0.012-0.024
		c0.018-0.03,0.024-0.054,0.036-0.066c0.626-1.205,1.58-2.213,2.774-2.905c0,0-0.012-0.024,0.304-0.197
		c0.036-0.024,0.083-0.048,0.131-0.072l15.606,5.071c-0.036,0.334-0.066,0.668-0.066,1.014c0,2.052,0.811,3.913,2.124,5.291
		l-9.461,13.017C140.907,465.714,140.698,465.709,140.698,465.709z M168.831,467.76c-0.37,2.046-1.611,3.83-3.388,4.892
		c-1.778,1.062-3.931,1.3-5.906,0.662l-3.537-1.151l-3.346,1.092c-1.939,0.626-4.057,0.412-5.816-0.615
		c-1.772-1.014-3.013-2.732-3.448-4.724c0,0-0.018,0-0.066-0.25l9.706-13.374c1.008,0.489,2.136,0.757,3.322,0.757
		c1.193,0,2.309-0.268,3.317-0.757l9.336,12.861C168.902,467.564,168.831,467.76,168.831,467.76z M183.261,448.29
		c-0.012,0.131-0.018,0.25-0.03,0.382c-0.119,1.259-0.579,2.482-1.336,3.532l-2.19,3.013v3.52c0,2.034-0.865,3.978-2.38,5.35
		c-1.515,1.36-3.531,2.016-5.559,1.802c0,0,0,0.024-0.263-0.012l-9.604-13.214c1.313-1.378,2.13-3.239,2.13-5.291
		c0-0.346-0.03-0.68-0.072-1.014l15.194-4.939c0.227,0.143,0.334,0.232,0.334,0.232c1.826,0.984,3.132,2.708,3.597,4.731
		c0.09,0.382,0.143,0.757,0.167,1.145c0.012,0.119,0.012,0.256,0.012,0.382C183.261,448.033,183.261,448.164,183.261,448.29z
		 M385.81,267.288c2.726,2.822,2.726,7.404,0,10.23c-2.72,2.828-7.135,2.828-9.861,0c-2.72-2.827-7.802-18.051-7.665-18.194
		c0.131,0.144-4.952,15.368-7.672,18.194c-2.726,2.828-7.14,2.828-9.861,0c-1.867-1.933-2.356-4.677-1.664-7.122
		c0.799-1.122,1.575-2.326,2.315-3.603c3.704-2.899,16.751-7.6,16.882-7.469C368.421,259.187,383.09,264.46,385.81,267.288z
		 M336.941,76.95c7.17,0.012,12.968,5.816,12.981,12.98c-0.006,3.89-1.754,7.332-4.456,9.712l-9.575,3.162
		c-6.669-0.554-11.918-6.073-11.93-12.873C323.973,82.766,329.771,76.962,336.941,76.95z M309.453,70.078
		c5.613,0.012,10.344,3.591,12.157,8.578c-2.332,3.161-3.758,7.039-3.758,11.274c0,0.9,0.078,1.778,0.197,2.649
		c-2.291,2.088-5.249,3.454-8.596,3.46c-7.17-0.012-12.968-5.817-12.981-12.981C296.485,75.894,302.283,70.09,309.453,70.078z
		 M298.668,129.594c-0.263-0.805-0.388-1.61-0.388-2.404c0-3.21,2.04-6.216,5.261-7.272l101.728-33.591
		c0.806-0.268,1.605-0.394,2.404-0.394c3.21,0.006,6.216,2.046,7.26,5.261c0.268,0.805,0.394,1.611,0.394,2.41
		c0,3.203-2.04,6.21-5.261,7.272l-101.728,33.591c-0.8,0.262-1.611,0.382-2.404,0.382c-3.21,0-6.21-2.034-7.266-5.25l-2.899,0.955
		L298.668,129.594z M382.952,163.359l-16.786-4.074c-6.556-10.273-14.072-20.402-22.722-29.976l12.539-4.14
		C366.565,137.451,375.496,150.408,382.952,163.359z M296.538,156.546c0.836-3.502,3.985-5.846,7.433-5.846
		c0.591,0,1.199,0.066,1.808,0.221l104.114,25.27c3.496,0.835,5.852,3.991,5.858,7.444c0,0.597-0.072,1.206-0.221,1.814
		c-0.847,3.49-4.002,5.846-7.451,5.846c-0.602,0-1.205-0.071-1.807-0.214l-104.108-25.275c-3.495-0.847-5.852-4.003-5.846-7.433
		c0-0.597,0.066-1.205,0.215-1.82l-2.965-0.722L296.538,156.546z M229.744,54.144c6.568-5.638,15.868-9.27,26.259-9.264
		c10.392-0.006,19.692,3.626,26.26,9.264c6.276,5.41,9.986,12.444,10.326,20.151c-0.901,1.724-1.563,3.573-1.903,5.554
		c-12.432-3.43-24.846-4.426-34.683-4.426c-10.23,0-23.241,0.966-36.168,4.742c-0.292-1.551-0.483-3.132-0.483-4.742
		C219.358,67.274,223.157,59.818,229.744,54.144z M207.355,71.647c-0.125,1.247-0.22,2.5-0.22,3.776c0,3.09,0.388,6.102,1.098,8.995
		c-9.789,4.402-18.97,10.893-26.278,20.318l-12.199-4.033C178.763,87.736,191.434,77.94,207.355,71.647z M101.941,100.878
		c-3.221-1.062-5.261-4.069-5.268-7.272c0-0.799,0.125-1.605,0.394-2.398v-0.012c1.05-3.215,4.057-5.256,7.266-5.261
		c0.794,0,1.592,0.125,2.392,0.394l101.74,33.591c3.221,1.056,5.261,4.063,5.261,7.272c0,0.793-0.125,1.598-0.388,2.41
		c-1.056,3.216-4.056,5.25-7.272,5.25c-0.794,0-1.599-0.12-2.41-0.388L101.941,100.878z M168.562,129.308
		c-8.65,9.574-16.166,19.703-22.722,29.976l-16.78,4.074c7.451-12.951,16.381-25.908,26.963-38.191L168.562,129.308z
		 M105.729,191.08c-0.596,0.143-1.199,0.214-1.802,0.214c-3.448,0-6.61-2.356-7.457-5.858c-0.143-0.602-0.215-1.205-0.215-1.802
		c0-3.454,2.356-6.609,5.852-7.444l104.12-25.27c0.608-0.155,1.211-0.221,1.808-0.221c3.448,0,6.592,2.344,7.433,5.846l2.97-0.716
		l-2.965,0.722c0.143,0.608,0.215,1.217,0.215,1.82c0,3.43-2.35,6.586-5.852,7.438L105.729,191.08z M201.151,394.649l50.354,51.576
		l-17.866,17.866l-12.48-12.789L201.151,394.649z M282.042,497.928c-5.423,0.262-10.994,0.417-16.65,0.513l22.889-22.896
		L282.042,497.928z M293.293,457.578L252.377,498.5c-4.952-0.03-9.867-0.089-14.646-0.25l-6.598-18.695l1.575-1.575l25.198-25.198
		l0.03,0.03l2.47-2.529l0.77-0.77l-0.012-0.012l48.123-49.286L293.293,457.578z M314.41,381.841l-56.474,57.852l-59.773-61.241
		c1.509-0.883,3.012-1.79,4.438-2.78c3.394-2.374,6.502-5.035,8.972-8.274c2.44-3.203,4.313-7.2,4.313-11.776
		c0-7.128,0-16.035,0-28.252v-2.583l-1.724-1.914c-9.163-10.207-21.571-23.748-25.872-47.831l-0.68-3.848l-0.787-0.28l5.285-79.936
		l65.447,12.217l62.344-12.217l5.285,79.936l-0.788,0.28l-0.68,3.848c-4.301,24.082-16.71,37.624-25.872,47.831l-1.724,1.914v2.583
		c0,12.217,0,21.124,0,28.252c-0.012,4.432,1.712,8.411,4.068,11.59c3.579,4.796,8.542,8.346,13.947,11.442
		c0.328,0.191,0.692,0.334,1.02,0.513L314.41,381.841z M350.925,437.82c0.805-4.348,4.975-7.218,9.33-6.418
		c4.349,0.799,7.224,4.968,6.425,9.317c-0.8,4.355-10.398,13.47-10.612,13.434C355.846,454.112,350.125,442.175,350.925,437.82z
		 M331.704,445.056c2.112-3.896,6.973-5.333,10.863-3.227c3.883,2.106,9.592,14.048,9.491,14.239
		c-0.108,0.198-13.231,1.945-17.12-0.16C331.048,453.808,329.61,448.94,331.704,445.056z M347.196,476.703
		c-3.197,3.054-8.268,2.923-11.316-0.275c-3.048-3.209-2.929-8.28,0.28-11.328c3.203-3.043,16.327-4.784,16.482-4.63
		C352.786,460.632,350.399,473.66,347.196,476.703z M367.001,482.155c-3.991,1.904-8.775,0.215-10.684-3.776
		c-1.909-3.979,0.495-17.008,0.692-17.103c0.203-0.09,11.847,6.21,13.75,10.201C372.674,475.462,370.986,480.24,367.001,482.155z
		 M375.18,463.317c-4.385,0.584-16.023-5.727-16.053-5.942c-0.029-0.22,9.557-9.354,13.942-9.932
		c4.379-0.578,8.411,2.494,8.989,6.884C382.637,458.705,379.559,462.744,375.18,463.317z"/>
</g>
</svg>