<?xml version="1.0" encoding="iso-8859-1"?>
<!-- Uploaded to: SVG Repo, www.svgrepo.com, Generator: SVG Repo Mixer Tools -->
<svg height="800px" width="800px" version="1.1" id="Capa_1" xmlns="http://www.w3.org/2000/svg" xmlns:xlink="http://www.w3.org/1999/xlink" 
	 viewBox="0 0 262.357 262.357" xml:space="preserve">
<g>
	<g>
		<path style="fill:#010002;" d="M257.612,144.44l-8.61-6.468c-2.894-2.172-6.528-3.371-10.221-3.371
			c-4.266,0-8.139,1.533-10.919,4.314c-2.954,2.948-9.111,5.543-13.181,5.543c-2.673,0-5.012-3.485-5.012-7.459v-14.088
			c0-4.105,3.347-7.453,7.459-7.453h25.687c15.001,0,17.208-2.763,18.271-4.087c1.098-1.36,1.504-3.097,1.134-4.773
			c-0.483-2.172-1.945-4.213-4.606-6.432l-8.61-6.468c-2.894-2.172-6.528-3.371-10.221-3.371c-4.266,0-8.139,1.533-10.919,4.314
			c-2.954,2.954-10.257,5.543-15.621,5.543h-38.343c-4.105,0-7.459-3.347-7.459-7.459V74.419c0-4.111,3.353-7.459,7.459-7.459
			h57.318c14.989,0,17.202-2.763,18.271-4.087c1.092-1.36,1.504-3.097,1.128-4.773c-0.477-2.166-1.945-4.213-4.6-6.432l-8.616-6.468
			c-2.894-2.172-6.528-3.371-10.221-3.371c-4.26,0-8.139,1.533-10.919,4.314c-2.954,2.954-10.251,5.543-15.621,5.543h-26.738
			c-4.111,0-7.459-3.347-7.459-7.459V33.301c0-4.785,3.115-9.189,6.194-11.075c2.303-1.408,3.389-3.676,2.936-6.062
			c-1.223-6.277-14.452-8.789-17.083-9.231c-0.674-0.113-1.343-0.167-1.993-0.167c-7.25,0-12.703,6.42-12.703,14.935v22.525
			c0,4.111-3.353,7.459-7.459,7.459H95.88c-6.128,0-16.409,0.991-16.409,7.638S89.752,66.96,95.88,66.96h40.449
			c4.111,0,7.459,3.347,7.459,7.459v18.306c0,4.111-3.353,7.459-7.459,7.459H83.224c-6.128,0-16.409,0.991-16.409,7.638
			s10.281,7.638,16.409,7.638h96.335c4.111,0,7.459,3.347,7.459,7.459v14.088c0,4.111-3.347,7.459-7.459,7.459H87.436
			c-6.128,0-16.409,0.991-16.409,7.638s10.281,7.638,16.409,7.638h92.117c4.105,0,7.459,3.347,7.459,7.459v51.327
			c0,3.849-1.17,5.012-5.012,5.012h-14.428c-10.227,0-19.046,0-19.046,6.587c0,5.233,5.853,6.534,12.65,8.031
			c0.817,0.173,1.623,0.364,2.399,0.543l8.962,2.106c1.653,0.34,1.82,0.698,1.82,1.969c0,3.174,0.686,5.639,2.106,7.53
			c1.647,2.202,4.207,3.413,7.214,3.413c0.692,0,1.432-0.066,2.22-0.197c4.994-0.829,9.965-3.288,14.78-7.297
			c5.991-5.126,8.998-12.656,8.998-22.423v-56.602c0-4.105,3.347-7.459,7.459-7.459h25.687c15.001,0,17.208-2.763,18.271-4.087
			c1.098-1.36,1.504-3.097,1.134-4.773C261.741,148.7,260.279,146.66,257.612,144.44z"/>
		<path style="fill:#010002;" d="M64.267,78.793l-3.67-2.297c-0.125-1.116,0.143-4.052,2.071-7.972
			c4.75-9.672,9.452-19.482,13.974-29.166c2.202-4.708,7.608-8.95,11.564-10.329c2.685-0.937,4.404-3.073,4.594-5.71
			C93.278,16.809,83.994,10.424,80.7,8.7l-1.002-0.525c-2.267-1.187-4.654-1.79-7.077-1.79c-6.158,0-11.486,3.968-13.569,10.108
			C42.87,64.138,25.793,101.073,8.28,126.271c-0.686,0.991-1.414,2.005-2.136,3.007c-4.606,6.426-6.617,9.404-6.05,12.542
			c0.251,1.384,1.02,2.584,2.178,3.353c0.895,0.591,1.963,0.901,3.091,0.901c4.744,0,11.802-6.587,14.619-9.422
			c6.098-6.134,11.91-13.145,17.304-20.878v130.167c0,9.308,5.824,10.03,7.608,10.03c1.42,0,2.906-0.37,4.535-1.128
			c6.826-3.186,10.508-13.652,10.508-21.881V101.831c0-5.12,2.458-9.356,4.159-10.323c3.425-1.951,4.213-4.386,4.272-6.086
			C68.456,82.892,67.078,80.666,64.267,78.793z"/>
		<path style="fill:#010002;" d="M121.149,171.965c-3.813-2.148-10.919-5.358-14.863-5.358c-2.279,0-3.61,1.002-4.32,1.844
			c-0.937,1.11-1.337,2.578-1.098,4.034c0.4,2.434,2.267,4.35,5.09,7.25c1.886,1.933,4.028,4.123,5.669,6.456
			c4.72,6.695,8.479,16.021,11.182,27.722c0.03,0.131,0.072,0.268,0.113,0.4c2.584,7.757,7.178,9.386,10.573,9.386
			c8.085,0,12.912-5.221,12.912-13.962C146.407,194.144,137.91,181.441,121.149,171.965z"/>
	</g>
</g>
</svg>